/* XPM */
static const char *YXBwaWNvbg__[] = {
/* columns rows colors chars-per-pixel */
"32 32 8 1 ",
"  c #633110",
". c #A57321",
"X c #C6B552",
"o c #6B6B94",
"O c #BD528C",
"+ c #94A5C6",
"@ c #E7E7E7",
"# c None",
/* pixels */
"OOOOOOOOOOOOOOOOOOOOOOOOOOOOOOOO",
"O@@@@@@@@@@@@@@@@@@@@@@@@@@@@@@O",
"O@@@@@@@@@@@@@@@@@@@@@@@@@@@@@@O",
"O@@OOOOOOOOOOOOOOOOOOOOOOOOOO@@O",
"O@@O########################O@@O",
"O@@O########################O@@O",
"O@@O########################O@@O",
"O@@O##### ##     ###   #####O@@O",
"O@@O## # .  .XXX... .X. # ##O@@O",
"O@@O# X .XXXXXXXXXX.XX.. X #O@@O",
"O@@O  @ .X@@@@@@@@@@@@X. @  O@@O",
"O@@O  @ .X+++o++oo++o@X. @  O@@O",
"O@@O  @..X@@@@@@@@@@@@X..@  O@@O",
"O@@O  @..X@@@@@@@@@@@@X..@  O@@O",
"O@@O  @..X+++ooo+oooo@X..@  O@@O",
"O@@O  @..X@@@@@@@@@@@@X..@  O@@O",
"O@@O  @..X+++ooo+o++o@X..@  O@@O",
"O@@O  @..X@@@@@@@@@@@@X..@  O@@O",
"O@@O  @..X+++ooo+o++o@X..@  O@@O",
"O@@O  @ .X@@@@@@@@@@@@X. @  O@@O",
"O@@O  . .XXX.XXXXXX.XXX. .  O@@O",
"O@@O# X  .X. ..XX...  .  X  O@@O",
"O@@O## ##   #              #O@@O",
"O@@O########################O@@O",
"O@@O########################O@@O",
"O@@O########################O@@O",
"O@@O########################O@@O",
"O@@O########################O@@O",
"O@@OOOOOOOOOOOOOOOOOOOOOOOOOO@@O",
"O@@@@@@@@@@@@@@@@@@@@@@@@@@@@@@O",
"O@@@@@@@@@@@@@@@@@@@@@@@@@@@@@@O",
"OOOOOOOOOOOOOOOOOOOOOOOOOOOOOOOO"
};
